<?xml version="1.0" encoding="UTF-8"?>
<!-- Generator: Adobe Illustrator 15.0.2, SVG Export Plug-In . SVG Version: 6.00 Build 0)  -->
<!DOCTYPE svg PUBLIC "-//W3C//DTD SVG 1.1//EN" "http://www.w3.org/Graphics/SVG/1.1/DTD/svg11.dtd">
<svg xmlns="http://www.w3.org/2000/svg" xmlns:xlink="http://www.w3.org/1999/xlink" version="1.1" id="Layer_1" x="0px" y="0px" width="512px" height="315.052px" viewBox="0 0 512 315.052" enable-background="new 0 0 512 315.052" xml:space="preserve">
<g>
	<path d="M5.762,151.767l118.151,118.152c7.683,7.672,20.163,7.672,27.846,0c7.682-7.674,7.682-20.172,0-27.846l-84.518-84.557   h287.225c78.769,0,118.152,72.692,118.152,137.844c0,10.865,8.826,19.691,19.69,19.691c10.865,0,19.691-8.826,19.691-19.691   c0-86.883-39.383-177.229-157.535-177.229H67.241l84.518-84.518c7.682-7.692,7.682-20.172,0-27.845   c-7.683-7.692-20.163-7.692-27.846,0L5.762,123.922C-1.921,131.595-1.921,144.036,5.762,151.767z" fill="#F0F8FF"/>
</g>
</svg>
