<?xml version="1.0" encoding="UTF-8"?>
<!-- Generator: Adobe Illustrator 15.0.2, SVG Export Plug-In . SVG Version: 6.00 Build 0)  -->
<!DOCTYPE svg PUBLIC "-//W3C//DTD SVG 1.1//EN" "http://www.w3.org/Graphics/SVG/1.1/DTD/svg11.dtd">
<svg xmlns="http://www.w3.org/2000/svg" xmlns:xlink="http://www.w3.org/1999/xlink" version="1.1" id="Layer_1" x="0px" y="0px" width="512px" height="577.715px" viewBox="0 0 512 577.715" enable-background="new 0 0 512 577.715" xml:space="preserve">
<g>
	<path d="M501.812,204.41H10.177C4.557,204.41,0,208.951,0,214.567v352.99c0,5.604,4.557,10.157,10.177,10.157h491.635   c5.651,0,10.188-4.553,10.188-10.157v-352.99C512,208.951,507.463,204.41,501.812,204.41z M170.579,503.303   c-16.967,0-35.711-3.422-50.182-9.137c-2.178-0.863-3.512-3.093-3.183-5.416l4.745-34.521c0.192-1.522,1.091-2.873,2.41-3.658   c1.365-0.801,2.99-0.941,4.403-0.393c15.906,5.997,29.282,8.462,46.17,8.462c17.7,0,30.027-8.367,30.027-20.33   c0-14.835-7.158-22.778-46.311-25.008c-2.692-0.157-4.784-2.386-4.784-5.07v-34.51c0-2.669,2.048-4.891,4.701-5.087   c33.721-2.378,37.618-12.747,37.618-20.33c0-5.142,0-13.736-22.826-13.736c-12.209,0-25.177,3.328-38.517,9.852   c-1.479,0.698-3.202,0.667-4.615-0.071c-1.456-0.77-2.438-2.189-2.653-3.799l-4.726-34.49c-0.321-2.214,0.875-4.364,2.885-5.322   c15.538-7.182,35.142-10.824,58.306-10.824c41.291,0,69.039,19.177,69.039,47.717c0,21.413-11.067,37.159-33.776,47.865   c19.49,7.52,39.408,21.166,39.408,50.021C258.72,476.678,224.144,503.303,170.579,503.303z M385.33,495.077   c0,2.794-2.284,5.07-5.086,5.07h-42.018c-2.818,0-5.087-2.276-5.087-5.07V356.641l-27.606,10.534   c-1.483,0.55-3.084,0.416-4.403-0.393c-1.342-0.77-2.245-2.135-2.434-3.665l-4.709-34.515c-0.299-2.166,0.824-4.277,2.786-5.235   l60.229-29.788c0.706-0.338,1.476-0.519,2.261-0.519h20.989c2.81,0,5.086,2.276,5.086,5.087v196.93H385.33z" fill="#F0F8FF"/>
	<g>
		<path d="M501.812,45.468h-52.387v24.525c0,26.001-14.836,53.772-56.512,53.772c-41.673,0-56.516-27.771-56.516-53.772V45.468    H176.262v24.525c0,26.001-14.831,53.772-56.508,53.772c-41.684,0-56.551-27.771-56.551-53.772V45.468H10.177    C4.557,45.468,0,50.012,0,55.629v103.356c0,5.628,4.557,10.177,10.177,10.177h491.635c5.651,0,10.188-4.549,10.188-10.177V55.629    C512,50.012,507.463,45.468,501.812,45.468z" fill="#F0F8FF"/>
		<path d="M119.754,90.932c16.841,0,23.682-6.068,23.682-20.946V45.468V20.954C143.436,6.06,136.595,0,119.754,0    C102.87,0,96.029,6.067,96.029,20.954v24.514v24.525C96.029,84.871,102.87,90.932,119.754,90.932z" fill="#F0F8FF"/>
		<path d="M392.905,90.932c16.833,0,23.678-6.068,23.678-20.946V45.468V20.954C416.583,6.06,409.738,0,392.905,0    c-16.892,0-23.682,6.067-23.682,20.954v24.514v24.525C369.216,84.871,376.014,90.932,392.905,90.932z" fill="#F0F8FF"/>
	</g>
</g>
</svg>
