<?xml version="1.0" encoding="UTF-8"?>
<!-- Generator: Adobe Illustrator 15.0.2, SVG Export Plug-In . SVG Version: 6.00 Build 0)  -->
<!DOCTYPE svg PUBLIC "-//W3C//DTD SVG 1.1//EN" "http://www.w3.org/Graphics/SVG/1.1/DTD/svg11.dtd">
<svg xmlns="http://www.w3.org/2000/svg" xmlns:xlink="http://www.w3.org/1999/xlink" version="1.1" id="Layer_1" x="0px" y="0px" width="512px" height="512px" viewBox="0 0 512 512" enable-background="new 0 0 512 512" xml:space="preserve">
<g>
	<path d="M480,160h-32V32c0-17.664-14.344-32-32-32H96C78.336,0,64,14.336,64,32v128H32c-17.664,0-32,14.336-32,32v160   c0,17.656,14.336,32,32,32h32v96c0,17.656,14.336,32,32,32h320c17.656,0,32-14.344,32-32v-96h32c17.656,0,32-14.344,32-32V192   C512,174.336,497.656,160,480,160z M96,320h320v160H96V320z M352,240c0-8.828,7.172-16,16-16s16,7.172,16,16s-7.172,16-16,16   S352,248.828,352,240z M80,256c-8.828,0-16-7.172-16-16s7.172-16,16-16s16,7.172,16,16S88.828,256,80,256z M432,256   c-8.828,0-16-7.172-16-16s7.172-16,16-16s16,7.172,16,16S440.828,256,432,256z M96,32h320v128H96V32z M384,368   c0-8.828-7.172-16-16-16H144c-8.828,0-16,7.172-16,16s7.172,16,16,16h224C376.828,384,384,376.828,384,368z M368,416H144   c-8.828,0-16,7.172-16,16s7.172,16,16,16h224c8.828,0,16-7.172,16-16S376.828,416,368,416z" fill="#1E90FF"/>
</g>
</svg>
