<?xml version="1.0" encoding="UTF-8"?>
<!-- Generator: Adobe Illustrator 15.0.2, SVG Export Plug-In . SVG Version: 6.00 Build 0)  -->
<!DOCTYPE svg PUBLIC "-//W3C//DTD SVG 1.1//EN" "http://www.w3.org/Graphics/SVG/1.1/DTD/svg11.dtd">
<svg xmlns="http://www.w3.org/2000/svg" xmlns:xlink="http://www.w3.org/1999/xlink" version="1.1" id="Layer_1" x="0px" y="0px" width="512px" height="406.975px" viewBox="0 0 512 406.975" enable-background="new 0 0 512 406.975" xml:space="preserve">
<path d="M13.128,249.436V144.41h105.026v105.025H13.128z M170.667,249.436V144.41H512v105.025H170.667z M170.667,288.82H512v105.025  H170.667V288.82z M183.795,301.949v78.769h315.077v-78.769H183.795z M39.385,275.692h52.513v39.385h39.385v52.513H91.897v39.385  H39.385V367.59H0v-52.513h39.385V275.692z M52.513,288.82v39.385H13.128v26.257h39.384v39.384H78.77v-39.384h39.385v-26.257H78.77  V288.82H52.513z M13.128,105.025V0h105.026v105.025H13.128z M170.667,105.025V0H512v105.025H170.667z" fill="#F0F8FF"/>
</svg>
