<?xml version="1.0" encoding="UTF-8"?>
<!-- Generator: Adobe Illustrator 15.0.2, SVG Export Plug-In . SVG Version: 6.00 Build 0)  -->
<!DOCTYPE svg PUBLIC "-//W3C//DTD SVG 1.1//EN" "http://www.w3.org/Graphics/SVG/1.1/DTD/svg11.dtd">
<svg xmlns="http://www.w3.org/2000/svg" xmlns:xlink="http://www.w3.org/1999/xlink" version="1.1" id="Layer_1" x="0px" y="0px" width="512px" height="552.951px" viewBox="0 0 512 552.951" enable-background="new 0 0 512 552.951" xml:space="preserve">
<path d="M0,409.585h85.477c39.372,44.008,96.592,71.695,160.279,71.695s120.907-27.688,160.279-71.695H512v143.366H0V409.585z   M481.28,440.305h-35.848v61.438h35.848V440.305z M266.244,245.756L143.359,122.878L266.244,0v83.045  c92.146,10.188,163.829,88.318,163.829,183.192c0,101.79-82.521,184.323-184.317,184.323S61.439,368.027,61.439,266.237  c0-36.422,10.565-70.382,28.793-98.973l60.485,38.487c-11.142,17.476-17.603,38.223-17.603,60.485  c0,62.204,50.432,112.628,112.641,112.628c62.21,0,112.646-50.424,112.646-112.628c0-55.218-39.738-101.151-92.158-110.783V245.756z  " fill="#F0F8FF"/>
</svg>
